<!-- icon666.com - MILLIONS vector ICONS FREE --><svg id="Layer_1" enable-background="new 0 0 60 60" viewBox="0 0 60 60" xmlns="http://www.w3.org/2000/svg"><path d="m48.6201172 25.1567993-13.7816162-13.7966919c-.2111816-.2112427-.5355225-.2791138-.8222046-.1583862-.2790527.1131592-.460083.3922119-.460083.6939697v6.6456299c-12.4238281.3997803-22.4035645 10.628479-22.4035645 23.1427612 0 2.2404175.3243408 4.4732056.9655151 6.6306152.0905151.3243408.3847046.5430908.7241821.5430908.3319092 0 .6260986-.21875.7241211-.5430908 2.625061-8.8634033 10.7793579-15.1243286 19.9897461-15.4486694v6.6229858c0 .3017578.1810303.5808716.460083.6939697.2866821.1131592.6110229.0527954.8222046-.1658936l13.7891846-13.7967529c.2941895-.2941283.2941895-.7701415-.0075683-1.0635375z" fill="rgb(0,0,0)"></path></svg>