<?xml version="1.0" standalone="no"?>
<!DOCTYPE svg PUBLIC "-//W3C//DTD SVG 20010904//EN"
 "http://www.w3.org/TR/2001/REC-SVG-20010904/DTD/svg10.dtd">
<svg version="1.0" xmlns="http://www.w3.org/2000/svg"
 width="1280.000000pt" height="1280.000000pt" viewBox="0 0 1280.000000 1280.000000"
 preserveAspectRatio="xMidYMid meet">
<metadata>
Created by potrace 1.16, written by Peter Selinger 2001-2019
</metadata>
<g transform="translate(0.000000,1280.000000) scale(0.100000,-0.100000)"
fill="#000000" stroke="none">
<path d="M5425 10419 c-20 -6 -499 -478 -1523 -1501 -821 -821 -1498 -1502
-1504 -1513 -21 -37 -27 -89 -17 -130 9 -35 196 -226 1507 -1538 883 -884
1510 -1505 1529 -1513 72 -31 163 -3 204 62 l24 39 3 729 3 729 122 -7 c446
-25 938 -136 1387 -313 825 -325 1563 -900 2082 -1626 265 -370 473 -782 623
-1235 53 -162 82 -205 147 -223 59 -15 114 -3 158 37 32 29 42 49 69 141 168
579 225 1273 156 1899 -111 1006 -530 1951 -1201 2714 -426 483 -935 876
-1513 1164 -603 302 -1201 460 -1938 512 l-93 6 0 707 c0 476 -4 719 -11 746
-25 92 -119 143 -214 114z"/>
</g>
</svg>
